<?xml version="1.0" standalone="no"?>
<!DOCTYPE svg PUBLIC "-//W3C//DTD SVG 20010904//EN"
 "http://www.w3.org/TR/2001/REC-SVG-20010904/DTD/svg10.dtd">
<svg version="1.0" xmlns="http://www.w3.org/2000/svg"
 width="460.000000pt" height="675.000000pt" viewBox="0 0 460.000000 675.000000"
 preserveAspectRatio="xMidYMid meet">

<g transform="translate(0.000000,675.000000) scale(0.100000,-0.100000)"
fill="#000000" stroke="none">
<path d="M2452 5465 l3 -448 109 -19 c683 -115 1181 -594 1327 -1278 33 -151
33 -458 1 -607 -98 -454 -356 -830 -727 -1061 -168 -104 -378 -184 -570 -217
-55 -9 -111 -20 -125 -23 -59 -15 56 -13 163 3 845 122 1464 676 1672 1495 75
296 84 652 24 955 -85 431 -319 840 -649 1132 -318 282 -719 456 -1173 509
l-57 6 2 -447z"/>
<path d="M2075 5023 c-498 -59 -907 -247 -1219 -559 -301 -302 -487 -677 -563
-1139 -24 -152 -25 -504 0 -660 36 -228 88 -389 192 -600 111 -225 238 -398
429 -582 313 -302 685 -484 1117 -547 59 -9 114 -16 123 -16 14 0 16 42 16
450 l0 450 -31 0 c-103 0 -376 79 -534 155 -557 267 -908 865 -882 1504 23
590 361 1113 885 1371 148 73 354 136 510 155 28 4 52 11 52 16 0 9 -34 10
-95 2z"/>
<path d="M1723 4143 l-173 -3 0 -49 0 -49 72 -10 c87 -13 118 -35 136 -93 19
-66 13 -1052 -7 -1091 -18 -35 -65 -57 -140 -64 l-61 -7 0 -48 0 -49 368 0
c387 0 503 8 642 41 207 49 365 169 448 339 60 122 76 192 76 335 -1 169 -33
281 -120 415 -110 171 -273 272 -512 316 -83 16 -425 24 -729 17z m657 -142
c84 -26 139 -61 201 -129 97 -105 144 -231 155 -417 11 -178 -30 -357 -110
-477 -80 -122 -179 -171 -346 -172 -69 -1 -116 4 -138 13 -63 27 -62 11 -62
642 l0 572 120 -7 c70 -4 145 -14 180 -25z"/>
</g>
</svg>
